# xmcd
#
# Track frame offsets:
#	150
#	20828
#	39745
#	53505
#	66832
#	85304
#	99712
#	116046
#	131215
#	146303
#	160555
#	174354
#
# Disc length: 2632 seconds
#
# Revision: 0
# Processed by: cddbd v1.5.2PL0 Copyright (c) Steve Scherf et al.
# Submitted via: dBpowerAMP V4.0
#
DISCID=a10a460c
DTITLE=Jorge Quevedo - Mi mayor venganza
DYEAR=1900
DGENRE=
TTITLE0=Mi mayor venganza
TTITLE1=Amiga de mi soledad
TTITLE2=Con el alma desnuda
TTITLE3=Me estoy volviendo loco
TTITLE4=Fuiste mia en septiembre
TTITLE5=perdóname todo
TTITLE6=María de la guia
TTITLE7=Veinticinco rosas
TTITLE8=Me falta tu amor
TTITLE9=Mía
TTITLE10=Quiero tu amor, lo quiero todo
TTITLE11=Cuando agosto era 21
EXTD=
EXTT0=
EXTT1=
EXTT2=
EXTT3=
EXTT4=
EXTT5=
EXTT6=
EXTT7=
EXTT8=
EXTT9=
EXTT10=
EXTT11=
PLAYORDER=
